HIERARCHY
ROOT Hips
{
    OFFSET 0.000000 0.000000 0.000000
    CHANNELS 6 Xposition Yposition Zposition Zrotation Xrotation Yrotation
    JOINT Chest
    {
        OFFSET -0.000000 0.078598 0.000000
        CHANNELS 3 Zrotation Xrotation Yrotation
        JOINT Chest2
        {
            OFFSET -0.000000 0.230468 0.000000
            CHANNELS 3 Zrotation Xrotation Yrotation
            JOINT Neck
            {
                OFFSET -0.000000 0.249638 0.000000
                CHANNELS 3 Zrotation Xrotation Yrotation
                JOINT Head
                {
                    OFFSET -0.000000 0.103998 0.019170
                    CHANNELS 3 Zrotation Xrotation Yrotation
                    End Site
                    {
                        OFFSET -0.000000 0.191701 0.000000
                    }
                }
            }
            JOINT LeftCollar
            {
                OFFSET 0.038274 0.205938 -0.001496
                CHANNELS 3 Zrotation Xrotation Yrotation
                JOINT LeftShoulder
                {
                    OFFSET 0.132388 0.000000 0.000000
                    CHANNELS 3 Zrotation Xrotation Yrotation
                    JOINT LeftElbow
                    {
                        OFFSET 0.250301 0.000000 0.000000
                        CHANNELS 3 Zrotation Xrotation Yrotation
                        JOINT LeftWrist
                        {
                            OFFSET 0.285291 0.000000 0.000000
                            CHANNELS 3 Zrotation Xrotation Yrotation
                            End Site
                            {
                                OFFSET 0.000000 -0.143776 0.000000
                            }
                        }
                    }
                }
            }
            JOINT RightCollar
            {
                OFFSET -0.038406 0.205938 -0.001496
                CHANNELS 3 Zrotation Xrotation Yrotation
                JOINT RightShoulder
                {
                    OFFSET -0.132388 0.000000 0.000000
                    CHANNELS 3 Zrotation Xrotation Yrotation
                    JOINT RightElbow
                    {
                        OFFSET -0.250301 0.000000 0.000000
                        CHANNELS 3 Zrotation Xrotation Yrotation
                        JOINT RightWrist
                        {
                            OFFSET -0.285291 0.000000 0.000000
                            CHANNELS 3 Zrotation Xrotation Yrotation
                            End Site
                            {
                                OFFSET -0.000000 -0.143776 0.000000
                            }
                        }
                    }
                }
            }
        }
    }
    JOINT LeftHip
    {
        OFFSET 0.095851 0.000000 0.000000
        CHANNELS 3 Zrotation Xrotation Yrotation
        JOINT LeftKnee
        {
            OFFSET -0.000000 -0.406444 0.000000
            CHANNELS 3 Zrotation Xrotation Yrotation
            JOINT LeftAnkle
            {
                OFFSET -0.000000 -0.408443 0.000000
                CHANNELS 3 Zrotation Xrotation Yrotation
                JOINT LeftToe
                {
                    OFFSET -0.000000 -0.062303 0.143776
                    CHANNELS 3 Zrotation Xrotation Yrotation
                    End Site
                    {
                        OFFSET -0.000000 0.000000 0.038340
                    }
                }
            }
        }
    }
    JOINT RightHip
    {
        OFFSET -0.095851 0.000000 0.000000
        CHANNELS 3 Zrotation Xrotation Yrotation
        JOINT RightKnee
        {
            OFFSET -0.000000 -0.406444 0.000000
            CHANNELS 3 Zrotation Xrotation Yrotation
            JOINT RightAnkle
            {
                OFFSET -0.000000 -0.408443 0.000000
                CHANNELS 3 Zrotation Xrotation Yrotation
                JOINT RightToe
                {
                    OFFSET -0.000000 -0.062303 0.143776
                    CHANNELS 3 Zrotation Xrotation Yrotation
                    End Site
                    {
                        OFFSET -0.000000 0.000000 0.038340
                    }
                }
            }
        }
    }
}
MOTION
Frames:    14
Frame Time:    0.016667
-0.016906    0.894013    1.546496    -0.959534    3.828530    -176.725082    0.354693    1.228269    -0.805413    -2.028622    -1.162298    -0.288005    -0.419037    10.907930    -0.215126    -1.832881    -3.661972    -0.139667    10.471906    -3.026884    -1.814561    -16.172119    0.836830    -9.162296    -1.529110    -7.853046    0.387143    93.142067    -2.996391    7.930130    -12.727057    -4.729361    3.457897    24.323540    1.090951    0.416455    -4.276122    -6.801448    -0.015367    -89.500977    3.991440    -6.819405    4.327564    9.401935    1.600713    -0.517599    -2.457420    1.290955    -7.058529    -6.572130    12.296358    0.000000    0.000000    0.000000    -5.893655    10.575501    4.381600    0.984154    -7.658476    1.258373    2.615016    -4.360434    -15.819468    0.000000    0.000000    0.000000    
-0.016865    0.893997    1.546419    -0.956680    3.821249    -176.759308    0.347755    1.195821    -0.782707    -2.039758    -1.085159    -0.279337    -0.374653    10.864505    -0.222396    -1.833317    -3.705566    -0.137700    10.465791    -2.983061    -1.812976    -16.106150    0.321001    -9.190841    -1.563794    -7.251028    0.416315    91.932457    -3.122451    7.298057    -12.728312    -4.765463    3.455849    24.318077    1.085152    0.402952    -4.276670    -6.722616    0.063285    -91.077583    3.704937    -6.685423    4.335170    9.429399    1.605745    -0.534315    -2.510507    1.439485    -7.094518    -6.553371    12.176341    0.000000    0.000000    0.000000    -5.952530    10.617649    4.479578    1.087106    -7.769049    1.273251    2.571509    -4.289751    -15.907294    0.000000    0.000000    0.000000    
-0.016796    0.893990    1.546415    -0.971580    3.772498    -176.790924    0.289247    1.182971    -0.760181    -1.980485    -1.135432    -0.272141    -0.385880    10.853192    -0.241608    -1.863381    -3.641042    -0.156049    10.455456    -2.959774    -1.825551    -16.185888    0.412123    -9.277659    -1.579434    -7.647822    0.474908    92.961113    -3.113597    7.721823    -12.789915    -4.755983    3.453858    24.352840    1.098346    0.393122    -4.258068    -6.770871    0.066212    -91.147675    3.730983    -6.731050    4.317417    9.397239    1.622966    -0.534416    -2.528883    1.442413    -7.146486    -6.556025    12.126734    0.000000    0.000000    0.000000    -5.968514    10.567698    4.477149    1.086478    -7.775987    1.294571    2.553895    -4.301036    -15.892982    0.000000    0.000000    0.000000    
-0.016750    0.893948    1.546338    -0.963734    3.759833    -176.817200    0.302720    1.166413    -0.755528    -1.996600    -1.116119    -0.270481    -0.378976    10.859491    -0.237533    -1.865728    -3.685179    -0.150721    10.482591    -2.945198    -1.833951    -16.144196    0.265189    -9.218450    -1.877474    -7.786718    0.272251    93.835289    -2.944984    7.880931    -12.774343    -4.763260    3.449757    24.317308    1.111039    0.416539    -4.213627    -6.770018    0.054851    -91.106659    3.727122    -6.731993    4.349658    9.446749    1.615525    -0.539345    -2.559081    1.478262    -7.181817    -6.599682    12.027540    0.000000    0.000000    0.000000    -5.959709    10.562230    4.477981    1.081258    -7.790085    1.300523    2.561473    -4.308825    -15.872089    0.000000    0.000000    0.000000    
-0.016766    0.893880    1.546108    -0.930776    3.779131    -176.841492    0.345948    1.155430    -0.745903    -1.977865    -1.070992    -0.266133    -0.415956    10.880427    -0.231698    -1.886525    -3.752106    -0.152312    10.441822    -2.941953    -1.846594    -16.179436    0.586533    -9.224128    -1.724371    -8.020334    0.281790    95.187050    -2.621089    8.134882    -12.856487    -4.806663    3.425281    24.388809    1.133819    0.427427    -4.208711    -6.843372    -0.022258    -89.500298    4.004916    -6.861650    4.352741    9.467464    1.608260    -0.526725    -2.599345    1.505953    -7.085219    -6.555869    12.196081    0.000000    0.000000    0.000000    -5.930382    10.605290    4.475678    1.082839    -7.821362    1.291392    2.566769    -4.294037    -15.825548    0.000000    0.000000    0.000000    
-0.016687    0.893898    1.545986    -0.927459    3.759562    -176.872116    0.338021    1.123409    -0.735735    -1.976021    -1.036935    -0.262287    -0.410900    10.880470    -0.234777    -1.886504    -3.790768    -0.154862    10.456325    -2.965217    -1.844541    -16.246767    1.024441    -9.228567    -1.492265    -8.289703    0.278525    94.959290    -2.690865    8.402660    -12.721805    -4.802571    3.417700    24.205853    1.154144    0.447027    -4.202030    -6.702246    0.077308    -91.167320    3.776400    -6.660954    4.358649    9.452295    1.617202    -0.531551    -2.581975    1.515151    -7.269194    -6.558970    12.234340    0.000000    0.000000    0.000000    -5.924607    10.586661    4.504672    1.078452    -7.820976    1.293024    2.551131    -4.292329    -15.840502    0.000000    0.000000    0.000000    
-0.016589    0.893878    1.545853    -0.914153    3.737605    -176.912323    0.333672    1.129521    -0.714933    -1.984241    -1.068656    -0.255888    -0.382774    10.852903    -0.240947    -1.867624    -3.759967    -0.156090    10.511887    -2.958092    -1.808735    -16.355919    1.146495    -9.338049    -1.323526    -8.322596    0.422809    94.903946    -2.849677    8.439823    -12.697865    -4.782862    3.401957    24.180002    1.157370    0.445428    -4.179677    -6.681655    0.099227    -91.214432    3.763783    -6.638158    4.375034    9.434408    1.643845    -0.537347    -2.560587    1.508059    -7.268322    -6.581106    12.239693    0.000000    0.000000    0.000000    -5.911105    10.563984    4.535234    1.078886    -7.819661    1.314149    2.544410    -4.310658    -15.852509    0.000000    0.000000    0.000000    
-0.016523    0.893854    1.545767    -0.905815    3.728826    -176.923111    0.325119    1.130389    -0.717690    -1.954770    -1.061990    -0.256473    -0.420456    10.853435    -0.228979    -1.843744    -3.799109    -0.155432    10.487878    -2.921621    -1.806881    -16.310900    0.816705    -9.348009    -1.429704    -8.023472    0.460077    94.618454    -2.908773    8.135104    -12.706292    -4.790426    3.387597    24.170389    1.174153    0.437974    -4.175874    -6.723516    0.137803    -91.285217    3.757278    -6.676374    4.397207    9.416154    1.659890    -0.559631    -2.528067    1.500444    -7.243125    -6.590618    12.244500    0.000000    0.000000    0.000000    -5.900435    10.556303    4.530142    1.079367    -7.816108    1.324153    2.539248    -4.319142    -15.846484    0.000000    0.000000    0.000000    
-0.016466    0.893826    1.545675    -0.909818    3.725372    -176.928513    0.272162    1.102916    -0.704227    -1.859863    -1.006987    -0.250386    -0.479039    10.879194    -0.218633    -1.856610    -3.854073    -0.157887    10.369565    -2.919912    -1.855786    -16.241880    0.797717    -9.340964    -1.513846    -8.221546    0.370238    95.202942    -2.766161    8.342415    -12.736175    -4.806963    3.352489    24.163948    1.186316    0.435610    -4.197826    -6.720180    0.153899    -91.276932    3.721529    -6.673092    4.392495    9.413308    1.628379    -0.547967    -2.515706    1.523916    -7.244046    -6.608829    12.258847    0.000000    0.000000    0.000000    -5.903849    10.563026    4.512908    1.085756    -7.827140    1.341307    2.548218    -4.327631    -15.838409    0.000000    0.000000    0.000000    
-0.016300    0.893773    1.545684    -0.923273    3.718112    -176.985962    0.229699    1.128009    -0.675901    -1.847610    -1.024197    -0.241263    -0.425494    10.917953    -0.209824    -1.947013    -3.938769    -0.129462    10.500072    -2.734586    -1.732229    -16.385990    0.544068    -9.568447    -1.542877    -8.017921    0.408391    93.595833    -3.273625    8.115268    -12.711300    -4.789078    3.351461    24.153887    1.175984    0.440024    -4.199398    -6.738498    0.178082    -91.255524    3.731307    -6.691121    4.381793    9.386483    1.703304    -0.552317    -2.445450    1.396524    -7.249745    -6.697469    12.356442    0.000000    0.000000    0.000000    -5.900912    10.539212    4.524326    1.058898    -7.818099    1.324532    2.573997    -4.358545    -15.783508    0.000000    0.000000    0.000000    
-0.016222    0.893761    1.545552    -0.919657    3.710462    -177.002762    0.186959    1.096354    -0.643298    -1.792553    -0.958118    -0.228911    -0.434579    10.878330    -0.226522    -1.915748    -3.943235    -0.151459    10.506479    -2.770222    -1.772061    -16.399929    0.487372    -9.570665    -1.588650    -7.974411    0.411256    93.722389    -3.099609    8.069515    -12.749112    -4.802725    3.305973    24.184868    1.201076    0.435306    -4.213568    -6.752597    0.170928    -91.332626    3.793914    -6.702223    4.403342    9.395480    1.708287    -0.580144    -2.466686    1.500006    -7.269682    -6.691718    12.256922    0.000000    0.000000    0.000000    -5.894086    10.525200    4.525519    1.064204    -7.791758    1.399018    2.541461    -4.401276    -15.849755    0.000000    0.000000    0.000000    
-0.016157    0.893732    1.545479    -0.898524    3.728062    -176.999908    0.222579    1.174840    -0.713642    -1.834026    -1.027961    -0.253883    -0.410617    10.856686    -0.196638    -1.945485    -3.902730    -0.111603    10.567021    -2.762378    -1.656358    -16.400530    0.583215    -9.633189    -1.615492    -8.037401    0.469160    93.702057    -3.092034    8.130792    -12.736898    -4.797316    3.362502    24.205496    1.262618    0.471507    -4.207847    -6.810860    0.064459    -90.785912    3.585995    -6.783914    4.420539    9.395782    1.685009    -0.559068    -2.415743    1.411068    -7.258439    -6.762299    12.375669    0.000000    0.000000    0.000000    -5.867638    10.535871    4.511963    1.066082    -7.768711    1.424260    2.529273    -4.408898    -15.846221    0.000000    0.000000    0.000000    
-0.016119    0.893679    1.545384    -0.887726    3.717912    -176.991837    0.288290    1.200700    -0.749816    -1.960683    -1.072316    -0.267564    -0.331639    10.885892    -0.207498    -1.980651    -3.930257    -0.101862    10.659939    -2.746946    -1.613770    -16.450563    0.578255    -9.604711    -1.569243    -8.052989    0.389697    93.656883    -3.051880    8.145148    -12.680249    -4.809610    3.371660    24.210459    1.275597    0.474818    -4.171705    -6.734177    0.100440    -91.208107    3.768099    -6.690812    4.434449    9.390119    1.647004    -0.556936    -2.415171    1.404824    -7.223537    -6.761068    12.413260    0.000000    0.000000    0.000000    -5.857472    10.528825    4.472132    1.079427    -7.759230    1.441309    2.531441    -4.429234    -15.829447    0.000000    0.000000    0.000000    
-0.016035    0.893652    1.545266    -0.877910    3.701420    -176.996384    0.307211    1.191412    -0.753508    -2.012139    -1.060204    -0.268941    -0.271871    10.889102    -0.240902    -2.014815    -3.962966    -0.120138    10.554976    -2.910067    -1.734796    -16.252563    0.672490    -9.376918    -1.599225    -7.957342    0.323446    93.110962    -3.167706    8.038909    -12.607486    -4.793993    3.377535    24.158138    1.268326    0.454339    -4.121005    -6.817485    -0.027963    -90.514511    3.808410    -6.801396    4.448509    9.373202    1.624643    -0.553930    -2.398341    1.472591    -7.236457    -6.777040    12.356503    0.000000    0.000000    0.000000    -5.844913    10.511331    4.458814    1.087578    -7.743979    1.458498    2.521592    -4.453779    -15.829723    0.000000    0.000000    0.000000    
